# xmcd CD database file
#
# Track frame offsets:
#	150
#	31543
#	43701
#	62700
#	85750
#	114980
#	140183
#	164286
#	188493
#	202533
#	230700
#	248248
#	269435
#	284224
#
# Disc length: 4277 seconds
#
# Revision: 0
# Processed by: cddbd v1.5.2PL0 Copyright (c) Steve Scherf et al.
# Submitted via: CDex 1.70beta2
#
DISCID=c210b30e
DTITLE=Chandra Lacombe - Estacao Bhakta
DYEAR=1900
DGENRE=New Age
TTITLE0=Ganesha Puja
TTITLE1=Bhaja Sri
TTITLE2=Jai Ma
TTITLE3=Om Sarve
TTITLE4=Coming Back Home
TTITLE5=Guru Ram Das
TTITLE6=Linda Verdade
TTITLE7=Kamala
TTITLE8=Royani
TTITLE9=Recado Da Mae Divina
TTITLE10=Surya
TTITLE11=Celestial Heart
TTITLE12=Om Shanti
TTITLE13=Prabhu Aap Jago
EXTD=
EXTT0=
EXTT1=
EXTT2=
EXTT3=
EXTT4=
EXTT5=
EXTT6=
EXTT7=
EXTT8=
EXTT9=
EXTT10=
EXTT11=
EXTT12=
EXTT13=
PLAYORDER=
